<svg width="642" height="432" viewBox="0 0 642 432" fill="none" xmlns="http://www.w3.org/2000/svg">
<path d="M489.958 293.247C489.958 298.29 492.004 302.857 495.308 306.161C498.611 309.464 503.179 311.51 508.222 311.51H565.003C577.265 311.51 587.688 319.342 591.558 330.278C592.6 333.213 593.168 336.378 593.168 339.673C593.168 347.452 590.018 354.495 584.922 359.592C579.826 364.688 572.783 367.838 565.003 367.838H474.103C471.903 367.838 469.942 368.842 468.639 370.413C467.628 371.632 467.014 373.21 467.014 374.927C467.014 376.89 467.81 378.659 469.091 379.94C470.37 381.227 472.149 382.017 474.103 382.017H515.019C515.188 382.017 515.357 382.017 515.525 382.024C517.74 382.07 519.878 382.399 521.909 382.99C522.024 383.021 522.146 383.05 522.262 383.09C532.5 386.186 539.949 395.697 539.949 406.947C539.949 410.556 539.183 413.99 537.796 417.086C536.547 419.899 534.791 422.427 532.646 424.574C528.14 429.079 521.901 431.869 515.019 431.869H114.679C106.503 431.869 99.2832 427.746 94.9992 421.462C92.3941 417.645 90.8679 413.032 90.8679 408.058C90.8679 401.491 93.5351 395.535 97.8417 391.22C98.11 390.952 98.3782 390.692 98.662 390.438C102.892 386.59 108.51 384.245 114.679 384.245H122.849C128.298 384.245 132.72 379.831 132.72 374.382C132.72 372.972 132.421 371.632 131.893 370.413C131.394 369.279 130.697 368.26 129.831 367.401C128.045 365.615 125.578 364.512 122.849 364.512H44.6709C32.079 364.512 21.7262 354.932 20.5076 342.655C20.4313 341.859 20.3932 341.054 20.3932 340.234C20.3932 333.528 23.114 327.465 27.5053 323.074C31.8965 318.676 37.9666 315.962 44.6721 315.962H78.983C87.812 315.962 94.9694 308.803 94.9694 299.975C94.9694 295.561 93.1762 291.56 90.2873 288.671C87.3983 285.782 83.3969 283.989 78.983 283.989H29.1375C13.0438 283.989 0 270.938 0 254.843C0 246.796 3.26453 239.508 8.5369 234.235C13.8093 228.963 21.0907 225.706 29.1375 225.706H66.9348C81.0588 225.706 92.5085 214.249 92.5085 200.123V100.924C92.5085 93.1607 98.8003 86.8689 106.563 86.8689C110.449 86.8689 113.959 85.2974 116.504 82.7459C119.048 80.2015 120.619 76.6842 120.619 72.8057V46.7181C120.619 20.9142 141.542 0 167.346 0H470.295C483.27 0 493.785 10.5149 493.785 23.4896C493.785 29.9805 491.156 35.8514 486.903 40.1043C482.657 44.3573 476.779 46.9863 470.295 46.9863H445.028C438.537 46.9863 433.279 52.2432 433.279 58.7269C433.279 61.9688 434.597 64.9114 436.72 67.0349C438.842 69.1584 441.786 70.4759 445.028 70.4759H555.999C578.554 70.4759 596.832 88.7539 596.832 111.309C596.832 122.59 592.264 132.798 584.877 140.185C577.481 147.573 567.272 152.14 555.999 152.14C546.365 152.14 537.636 156.049 531.322 162.364C527.528 166.165 524.601 170.833 522.868 176.052C521.726 179.509 521.106 183.202 521.106 187.042V187.8C521.106 207.066 536.725 222.693 555.999 222.693H567.028C581.467 222.693 593.169 234.395 593.169 248.841C593.169 249.531 593.146 250.213 593.093 250.88C592.594 257.287 589.79 263.05 585.513 267.327C580.785 272.055 574.247 274.982 567.028 274.982H508.223C498.135 274.984 489.958 283.162 489.958 293.247Z" fill="url(#paint0_linear_1095_2260)"/>
<path d="M82.4014 69.3884C88.5886 63.2012 88.5886 53.1699 82.4014 46.9827C76.2143 40.7956 66.1829 40.7956 59.9958 46.9827C53.8086 53.1699 53.8086 63.2012 59.9958 69.3884C66.1829 75.5755 76.2143 75.5755 82.4014 69.3884Z" fill="#2A70FC"/>
<path d="M627.362 350.943C635.446 347.594 639.285 338.326 635.936 330.242C632.588 322.157 623.32 318.319 615.235 321.667C607.151 325.016 603.312 334.284 606.661 342.368C610.01 350.452 619.278 354.291 627.362 350.943Z" fill="#2A70FC"/>
<path d="M352.265 332.187C352.038 332.187 351.808 332.146 351.587 332.063C350.843 331.78 350.351 331.067 350.351 330.271V278.809C350.351 277.75 351.208 276.893 352.267 276.893H397.884C398.638 276.893 399.322 277.335 399.632 278.023C399.941 278.71 399.818 279.516 399.319 280.08L353.701 331.542C353.329 331.96 352.803 332.187 352.265 332.187ZM354.181 280.725V325.221L393.625 280.725H354.181Z" fill="#00B3F9"/>
<path d="M404.99 282.633H330.12C328.007 282.633 326.296 280.921 326.296 278.809C326.296 276.698 328.008 274.984 330.12 274.984H404.99C407.103 274.984 408.814 276.697 408.814 278.809C408.815 280.921 407.103 282.633 404.99 282.633Z" fill="#0D5375"/>
<path d="M493.786 175.276C493.786 175.276 479.211 272.614 478.889 273.595C478.56 274.583 439.336 326.521 439.336 326.521L414.414 311.508L405.063 219.711L424.415 177.997L425.68 175.276H439.336C439.336 175.276 443.888 165.184 457.369 165.184C459.683 165.184 461.607 165.483 463.209 165.973C463.231 165.98 463.254 165.988 463.278 165.996C463.3 165.996 463.331 166.011 463.37 166.018C470.965 168.448 471.21 175.276 471.21 175.276H493.786Z" fill="#65B8D1"/>
<path opacity="0.25" d="M493.786 175.276C493.786 175.276 479.211 272.614 478.889 273.595C478.56 274.583 439.336 326.521 439.336 326.521L414.414 311.508L405.063 219.711L424.415 177.997C427.757 178.265 432.929 181.185 439.336 192.942C450.9 214.155 456.91 218.255 465.109 217.979C471.524 217.772 475.088 188.412 487.074 175.276H493.786Z" fill="black"/>
<path d="M480.864 175.277H471.208C471.208 175.277 470.962 168.448 463.367 166.019C464.977 166.479 477.891 170.218 479.17 172.18C479.6 172.833 480.22 173.875 480.864 175.277Z" fill="#8BDEF2"/>
<path d="M358.306 330.27C358.306 333.604 355.603 336.307 352.269 336.307C348.935 336.307 346.232 333.604 346.232 330.27C346.232 326.936 348.935 324.233 352.269 324.233C355.603 324.233 358.306 326.936 358.306 330.27Z" fill="#0D5375"/>
<path d="M139.753 111.515L147.355 91.8674C147.865 90.5475 149.721 90.5165 150.276 91.8173L158.893 112.652" stroke="#65B8D1" stroke-width="1.2855" stroke-miterlimit="10"/>
<path d="M178.128 147.256C182.297 131.038 172.53 114.51 156.311 110.34C140.093 106.17 123.565 115.938 119.395 132.156C115.225 148.375 124.992 164.903 141.211 169.073C157.43 173.242 173.958 163.475 178.128 147.256Z" fill="#A5CAD3"/>
<path d="M172.378 161.139C184.219 149.297 184.219 130.099 172.378 118.258C160.536 106.417 141.338 106.417 129.497 118.258C117.656 130.099 117.656 149.297 129.497 161.139C141.338 172.98 160.536 172.98 172.378 161.139Z" fill="#CAE7EF"/>
<path opacity="0.55" d="M168.572 149.559C174.017 139.826 170.542 127.522 160.809 122.076C151.077 116.631 138.773 120.106 133.327 129.839C127.881 139.571 131.357 151.875 141.089 157.321C150.822 162.767 163.126 159.292 168.572 149.559Z" fill="white"/>
<path d="M255.325 45.8473L262.927 26.1993C263.438 24.8794 265.293 24.8484 265.848 26.1504L274.465 46.9859" stroke="#65B8D1" stroke-width="1.2855" stroke-miterlimit="10"/>
<path d="M264.326 104.35C281.072 104.35 294.648 90.7746 294.648 74.0285C294.648 57.2824 281.072 43.707 264.326 43.707C247.58 43.707 234.005 57.2824 234.005 74.0285C234.005 90.7746 247.58 104.35 264.326 104.35Z" fill="#CAE7EF"/>
<path d="M266.512 104.35C283.258 104.35 296.833 90.7746 296.833 74.0285C296.833 57.2824 283.258 43.707 266.512 43.707C249.766 43.707 236.19 57.2824 236.19 74.0285C236.19 90.7746 249.766 104.35 266.512 104.35Z" fill="white"/>
<path d="M266.512 94.2217C277.664 94.2217 286.705 85.181 286.705 74.0288C286.705 62.8766 277.664 53.8359 266.512 53.8359C255.36 53.8359 246.319 62.8766 246.319 74.0288C246.319 85.181 255.36 94.2217 266.512 94.2217Z" fill="#CAE7EF"/>
<path d="M336.782 431.871H329.578L283.749 255.956H290.945L336.782 431.871Z" fill="#008EBA"/>
<path opacity="0.25" d="M336.781 431.871H332.843L287.006 255.956H290.944L336.781 431.871Z" fill="black"/>
<path d="M364.121 297.386L360.212 307.587C360.212 307.587 355.959 314.124 350.379 321.274C350.31 321.374 350.249 321.451 350.196 321.512C350.165 321.543 350.142 321.581 350.111 321.626C344.884 328.286 338.562 335.39 333.504 338.18C329.097 340.602 320.107 353.546 311.033 367.839C298.281 387.917 285.368 410.655 284.724 410.655C283.635 410.655 267.971 401.911 267.604 400.095C267.251 398.325 297.101 335.826 306.175 320.828C306.451 320.376 306.704 319.963 306.941 319.603C310.161 314.628 316.59 309.31 323.12 304.728C325.787 302.85 328.47 301.103 330.96 299.554C337.559 295.438 342.817 292.703 342.817 292.703L361.57 296.826L364.121 297.386Z" fill="#0D5375"/>
<path d="M328.248 310.314C324.239 312.881 314.591 322.882 311.678 323.427C309.854 323.764 307.601 322.108 306.176 320.829C306.452 320.377 306.705 319.963 306.942 319.603C311.479 312.598 322.363 304.912 330.96 299.555C333.889 303.754 331.597 308.912 328.248 310.314Z" fill="#02374C"/>
<path opacity="0.25" d="M361.568 296.826C359.484 302.574 352.202 318.668 350.379 321.273C350.31 321.373 350.249 321.45 350.196 321.511C350.165 321.542 350.142 321.58 350.111 321.625C344.884 328.285 338.562 335.389 333.503 338.179C329.097 340.601 320.107 353.545 311.033 367.838C318.344 348.694 321.862 318.215 323.118 304.727C325.786 302.849 328.468 301.102 330.959 299.553C337.557 295.437 342.815 292.702 342.815 292.702L361.568 296.826Z" fill="black"/>
<g opacity="0.25">
<path d="M336.305 315.96C336.305 315.96 335.55 316.429 334.177 317.585" stroke="#F9F9F9" stroke-width="1.2855" stroke-miterlimit="10" stroke-linecap="round"/>
<path d="M330.399 321.14C326.309 325.348 320.376 332.54 313.504 344.186C303.226 361.601 290.598 388.863 285.619 399.834" stroke="#F9F9F9" stroke-width="1.2855" stroke-miterlimit="10" stroke-linecap="round" stroke-dasharray="4.36 4.36"/>
<path d="M284.547 402.204C283.843 403.77 283.454 404.647 283.454 404.647" stroke="#F9F9F9" stroke-width="1.2855" stroke-miterlimit="10" stroke-linecap="round"/>
</g>
<path d="M437.264 319.235C432.237 327.436 422.434 325.243 407.758 323.244C393.082 321.243 369.585 322.884 366.129 324.156C364.045 324.922 357.729 356.65 352.403 382.017C349.56 395.575 346.992 407.315 345.506 411.546V411.553C345.153 412.55 344.862 413.124 344.64 413.208C341.727 414.296 332.439 416.304 325.703 410.296C324.614 391.75 325.251 347.874 329.696 320.125C331.19 310.813 333.114 303.318 335.536 299.202C337.988 295.033 343.33 291.898 349.921 289.53C349.943 289.523 349.967 289.515 349.99 289.507C350.013 289.499 350.044 289.492 350.09 289.476C350.282 289.4 350.466 289.338 350.658 289.269C358.214 286.655 367.303 285.016 375.58 283.988C379.542 289.667 391.712 287.429 401.047 288.87C403.2 289.199 405.921 289.413 408.902 289.491C419.669 289.79 433.885 288.449 437.265 285.307C437.555 285.79 447.534 302.527 437.264 319.235Z" fill="#0D5375"/>
<path opacity="0.25" d="M437.263 319.235C432.236 327.435 422.433 325.243 407.757 323.243C393.081 321.243 369.584 322.883 366.127 324.155C364.043 324.922 357.728 356.649 352.402 382.017C354.409 358.013 358.073 315.818 359.199 315.963C360.655 316.14 365.943 321.512 365.943 321.512C365.943 321.512 411.151 316.048 405.855 309.089C400.56 302.123 379.875 290.237 370.31 288.052C361.443 286.029 351.473 289.034 350.085 289.478C350.277 289.402 350.461 289.34 350.652 289.271C358.209 286.657 367.298 285.018 375.575 283.99C379.537 289.669 391.707 287.431 401.042 288.872C403.195 289.201 405.916 289.415 408.897 289.493C419.664 289.792 433.88 288.451 437.26 285.309C437.554 285.789 447.532 302.527 437.263 319.235Z" fill="black"/>
<path d="M360.212 233.101L349.191 234.373C349.191 234.373 338.301 234.06 325.418 233.669C308.627 233.155 288.455 232.497 284.54 232.19C277.62 231.647 264.69 228.727 265.602 226.726C266.515 224.725 274.707 223.813 278.532 223.629C282.356 223.446 289.092 226.726 291.645 226.726C293.86 226.726 321.779 225.63 330.821 225.101C332.216 225.016 333.167 224.948 333.504 224.902C336.026 224.542 346.479 217.031 346.479 217.031L354.396 219.216L360.212 233.101Z" fill="url(#paint1_linear_1095_2260)"/>
<path opacity="0.25" d="M360.214 233.101L349.193 234.373C349.193 234.373 338.303 234.06 325.42 233.669L330.822 225.101C332.217 225.016 333.167 224.948 333.505 224.902C336.027 224.542 346.48 217.031 346.48 217.031L354.396 219.216L360.214 233.101Z" fill="black"/>
<path d="M437.922 284.365C437.807 284.694 437.584 285.009 437.263 285.3V285.307C433.882 288.449 419.666 289.79 408.899 289.491C405.918 289.414 403.197 289.2 401.044 288.869C391.709 287.429 379.539 289.667 375.577 283.988C375.01 283.192 374.612 282.233 374.413 281.084C372.903 272.547 378.728 260.668 377.954 247.133C377.885 245.945 377.762 244.742 377.585 243.524C377.393 242.213 377.203 240.887 377.018 239.562C376.903 238.772 376.788 237.976 376.68 237.178C376.159 233.415 375.669 229.66 375.247 226.058C368.748 229.291 359.988 233.821 358.018 233.552C357.598 233.499 357.037 233.154 356.386 232.602C352.409 229.23 345.158 218.041 346.684 216.754C348.462 215.252 382.337 190.805 382.337 190.805C385.218 188.598 388.758 186.552 392.897 184.842C394.437 184.198 396.062 183.608 397.764 183.071H397.771C399.772 182.435 401.879 181.876 404.094 181.408C404.094 181.408 405.297 181.616 407.197 182.021L407.274 182.037C408.569 182.305 410.171 182.665 411.933 183.117L412.125 183.163C419.03 184.926 428.257 187.977 430.817 192.129C431.392 193.057 431.897 194.826 432.357 197.218C435.277 212.523 435.966 253.202 436.557 260.054C437.24 267.972 439.561 279.583 437.922 284.365Z" fill="#0C1C28"/>
<path opacity="0.25" d="M437.924 284.365C436.614 288.182 420.688 289.821 408.901 289.492C417.86 287.17 423.447 282.863 423.952 278.625C424.773 271.704 418.211 269.336 405.261 266.424C396.616 264.477 384.829 253.932 377.955 247.135C377.885 245.947 377.763 244.744 377.586 243.525C377.394 242.215 377.203 240.889 377.019 239.563C395.22 230.582 429.109 192.944 429.109 192.944L432.358 197.221C435.278 212.526 435.967 253.205 436.557 260.057C437.242 267.972 439.563 279.583 437.924 284.365Z" fill="black"/>
<path opacity="0.25" d="M378.721 230.189V237.285C378.721 237.285 377.962 237.247 376.682 237.178C376.161 233.415 375.671 229.659 375.249 226.057C368.75 229.291 359.99 233.821 358.02 233.552C357.599 233.499 357.039 233.154 356.388 232.602C366.243 226.624 374.796 203.932 378.72 202.139C376.199 206.875 378.721 230.189 378.721 230.189Z" fill="black"/>
<path d="M439.332 214.884C439.417 221.75 435.554 231.1 432.497 236.403C431.026 238.948 429.745 240.565 429.17 240.519C428.902 240.497 428.312 240.289 427.492 239.922C422.839 237.86 410.769 230.787 408.562 224.403C409.206 223.285 409.842 222.196 410.47 221.13C421.299 202.767 429.653 191.954 430.373 191.494C430.373 191.494 439.095 195.816 439.332 214.884Z" fill="#0C1C28"/>
<path d="M427.492 239.922C425.384 242.605 421.391 247.509 417.246 251.839C412.609 256.675 407.773 260.791 405.145 260.255C399.068 259.028 357.477 228.365 353.514 227.752C349.552 227.14 333.442 228.573 333.503 227.477C333.572 226.381 342.317 217.031 346.478 217.031C350.639 217.031 360.411 222.151 364.648 222.626C368.879 223.108 402.132 235.47 402.132 235.47L405.857 229.063L408.562 224.403C410.77 230.787 422.84 237.861 427.492 239.922Z" fill="url(#paint2_linear_1095_2260)"/>
<path opacity="0.25" d="M412.126 183.164C409.199 191.356 400.262 197.473 394.944 195.173C390.568 193.279 392.001 187.448 392.898 184.841C394.438 184.198 396.063 183.607 397.764 183.071H397.772L407.198 182.021L407.274 182.036L411.934 183.116L412.126 183.164Z" fill="black"/>
<path d="M383.656 171.492L379.687 172.183L379.127 172.282C375.955 172.841 372.652 169.116 371.754 163.967C370.85 158.817 372.682 154.187 375.854 153.628L380.391 152.839C379.832 152.939 379.311 153.161 378.844 153.505C378.636 153.644 378.437 153.812 378.253 153.995C377.464 154.778 376.858 155.903 376.491 157.237C376.008 158.946 375.909 161.016 376.285 163.169C376.66 165.331 377.465 167.231 378.492 168.68C379.304 169.814 380.254 170.665 381.258 171.132C382.039 171.5 382.851 171.631 383.656 171.492Z" fill="#07171C"/>
<path opacity="0.25" d="M383.656 171.494L379.687 172.184C377.111 171.464 374.751 168.191 374.015 163.968C373.111 158.819 374.942 154.189 378.115 153.63L378.844 153.507C378.636 153.645 378.437 153.813 378.254 153.997C377.464 154.779 376.859 155.905 376.491 157.239C376.008 158.947 375.909 161.017 376.285 163.17C376.661 165.332 377.465 167.233 378.492 168.681C379.304 169.815 380.254 170.666 381.258 171.134C382.039 171.501 382.851 171.632 383.656 171.494Z" fill="black"/>
<path d="M415.122 148.746C414.655 157.222 411.429 167.07 405.435 173.714C405.428 173.721 405.428 173.721 405.419 173.73L399.45 153.245C399.45 153.245 392.99 155.973 385.433 158.892C381.647 160.348 378.574 161.536 375.546 161.82C372.534 162.095 369.584 161.475 366.035 159.344C361.177 156.417 360.173 149.773 362.61 145.833C363.736 144.009 365.59 142.768 368.128 142.73C369.767 130.162 379.799 127.563 385.916 133.847C385.992 133.932 386.099 134.001 386.222 134.054C386.222 134.054 386.23 134.062 386.245 134.07C388.429 135.105 396.813 133.166 396.813 133.166C396.813 133.166 399.427 130.009 405.09 131.02C406.401 131.257 407.872 131.71 409.513 132.484C413.682 134.438 415.552 141.021 415.122 148.746Z" fill="#0C1C28"/>
<path d="M408.103 182.836C405.643 191.672 397.266 192.668 396.086 191.94C395.526 191.595 394.415 189.188 393.411 186.767C392.392 184.322 391.48 181.861 391.334 181.47C391.327 181.432 391.319 181.417 391.319 181.417C391.319 181.417 391.25 181.462 391.097 181.501C390.875 181.555 390.484 181.609 389.871 181.517C389.013 181.387 387.725 180.958 385.916 179.831C379.417 175.808 376.59 166.251 375.723 162.61C375.654 162.304 375.593 162.036 375.547 161.821C378.574 161.537 381.648 160.35 385.433 158.894C392.99 155.974 399.45 153.246 399.45 153.246L404.094 169.187L405.42 173.732C405.427 173.724 405.427 173.724 405.436 173.717C405.988 176.367 406.86 179.8 408.103 182.836Z" fill="url(#paint3_linear_1095_2260)"/>
<path opacity="0.25" d="M415.122 148.747C414.655 157.223 411.429 167.072 405.435 173.715C405.428 173.722 405.428 173.722 405.419 173.731L399.45 153.246C399.45 153.246 392.99 155.974 385.433 158.894C381.647 160.35 378.574 161.537 375.546 161.821C372.534 162.096 369.584 161.476 366.035 159.346C361.177 156.418 360.173 149.774 362.61 145.834C362.25 152.51 367.377 155.621 367.377 155.621C367.377 155.621 366.082 151.674 367.929 148.739C367.991 152.157 370.044 155.567 377.585 156.356C385.134 157.146 393.878 151.605 392.308 144.37C390.805 137.435 386.598 134.323 386.246 134.07C388.43 135.105 396.815 133.166 396.815 133.166C396.815 133.166 399.428 130.009 405.092 131.02C402.448 134.507 410.44 144.777 414.073 147.574C414.48 147.889 414.824 148.288 415.122 148.747Z" fill="black"/>
<path opacity="0.25" d="M393.412 186.767C392.393 184.323 391.48 181.862 391.335 181.471C393.097 181.233 396.11 180.176 398.386 176.053C399.435 178.275 395.075 184.513 393.412 186.767Z" fill="black"/>
<path opacity="0.25" d="M404.094 169.186C398.086 165.508 392.423 159.974 383.655 161.821C380.129 162.564 377.562 162.718 375.722 162.61C375.653 162.304 375.592 162.036 375.546 161.821C378.573 161.537 381.647 160.35 385.432 158.894C392.989 155.974 399.449 153.246 399.449 153.246L404.094 169.186Z" fill="black"/>
<path d="M404.616 146.801L399.512 148.739C399.512 148.739 399.466 148.371 399.351 147.751C398.707 144.195 395.887 132.37 387.143 134.309C388.399 131.565 400.799 129.412 404.095 143.789C404.309 144.724 404.486 145.727 404.616 146.801Z" fill="#00B3F9"/>
<path d="M409.735 165.133C408.93 165.271 408.118 165.14 407.336 164.773C406.332 164.306 405.382 163.455 404.57 162.32C403.544 160.872 402.739 158.971 402.363 156.811C401.988 154.657 402.088 152.588 402.571 150.879C402.939 149.546 403.544 148.419 404.333 147.637C404.946 147.024 405.666 146.618 406.471 146.479C409.636 145.92 412.939 149.645 413.844 154.795C414.748 159.944 412.908 164.574 409.735 165.133Z" fill="#00B3F9"/>
<path d="M411.858 160.872C411.498 160.941 411.129 160.903 410.769 160.787C410.662 160.756 410.562 160.711 410.455 160.664C410.125 160.51 409.803 160.281 409.497 159.989C409.26 159.775 409.037 159.515 408.831 159.223C408.225 158.371 407.758 157.26 407.536 155.988C407.314 154.723 407.375 153.513 407.659 152.509C407.75 152.164 407.873 151.842 408.027 151.551C408.211 151.183 408.434 150.862 408.693 150.608C408.763 150.539 408.832 150.478 408.908 150.425C409.215 150.164 409.567 149.995 409.95 149.926C411.805 149.597 413.744 151.789 414.272 154.808C414.8 157.829 413.72 160.543 411.858 160.872Z" fill="#07171C"/>
<path opacity="0.25" d="M411.421 160.957C410.977 161.823 410.317 162.413 409.514 162.558C409.153 162.627 408.785 162.589 408.425 162.474C408.318 162.443 408.219 162.397 408.11 162.351C407.781 162.197 407.459 161.968 407.153 161.676C406.916 161.461 406.694 161.201 406.486 160.909C405.881 160.058 405.413 158.948 405.191 157.675C404.985 156.479 405.023 155.329 405.276 154.356C405.238 155 405.276 155.689 405.399 156.395C405.621 157.66 406.089 158.779 406.694 159.629C407.168 160.288 407.729 160.794 408.319 161.062C408.779 161.284 409.254 161.361 409.721 161.277L411.421 160.957Z" fill="black"/>
<path d="M409.736 165.133L405.206 165.922C402.034 166.482 398.73 162.757 397.833 157.607C396.929 152.458 398.761 147.828 401.934 147.269L406.47 146.479C405.665 146.618 404.945 147.023 404.332 147.637C403.543 148.419 402.937 149.546 402.57 150.879C402.087 152.588 401.988 154.657 402.363 156.811C402.738 158.972 403.543 160.873 404.57 162.32C405.382 163.454 406.332 164.306 407.336 164.773C408.118 165.14 408.931 165.27 409.736 165.133Z" fill="#07171C"/>
<path opacity="0.25" d="M404.616 146.8L399.512 148.739C399.512 148.739 399.466 148.37 399.351 147.75C400.562 145.505 402.293 144.01 404.095 143.788C404.309 144.723 404.486 145.727 404.616 146.8Z" fill="black"/>
<path d="M411.857 160.872L411.42 160.957L409.719 161.278C409.251 161.363 408.776 161.286 408.317 161.064C407.727 160.796 407.167 160.29 406.692 159.631C406.086 158.779 405.619 157.661 405.397 156.397C405.274 155.693 405.236 155.002 405.274 154.358C405.274 154.35 405.274 154.35 405.274 154.343C405.312 153.837 405.397 153.354 405.52 152.917C405.734 152.135 406.087 151.468 406.554 151.016C406.915 150.656 407.337 150.411 407.811 150.334L409.949 149.928C409.566 149.997 409.213 150.165 408.907 150.426C408.831 150.48 408.761 150.541 408.692 150.61C408.432 150.863 408.209 151.184 408.026 151.553C408.017 151.561 408.017 151.576 408.01 151.584C407.865 151.868 407.749 152.174 407.657 152.511C407.374 153.515 407.313 154.727 407.535 155.991C407.758 157.263 408.225 158.374 408.829 159.225C409.037 159.516 409.259 159.777 409.496 159.992C409.802 160.283 410.124 160.513 410.453 160.667C410.561 160.712 410.661 160.759 410.768 160.79C410.99 160.859 411.228 160.897 411.45 160.904C411.588 160.91 411.72 160.895 411.857 160.872Z" fill="#008EBA"/>
<path opacity="0.25" d="M432.497 236.404C431.026 238.949 429.745 240.565 429.17 240.52C428.902 240.497 428.312 240.29 427.492 239.923C422.839 237.861 410.769 230.787 408.562 224.404C409.206 223.285 409.842 222.197 410.47 221.131C413.866 224.319 424.473 233.875 432.497 236.404Z" fill="white"/>
<path opacity="0.25" d="M427.494 239.923C425.386 242.606 421.393 247.51 417.247 251.84C410.005 244.851 407.047 235.21 405.858 229.064L408.564 224.404C410.772 230.788 422.842 237.862 427.494 239.923Z" fill="black"/>
<path d="M345.046 300.888C339.222 306.59 336.447 321.65 335.076 321.512C334.195 321.427 331.497 320.662 329.696 320.125C331.19 310.813 333.115 303.318 335.536 299.202C338.081 294.88 343.729 291.669 350.657 289.271C352.412 291.799 354.067 294.413 354.198 295.019C354.474 296.244 351.062 295.017 345.046 300.888Z" fill="#02374C"/>
<path opacity="0.25" d="M416.675 294.198C416.675 294.198 414.753 301.834 423.948 305.392" stroke="#F9F9F9" stroke-width="1.2855" stroke-miterlimit="10"/>
<g opacity="0.25">
<path d="M414.296 299.554C414.296 299.554 413.322 299.625 411.629 299.787" stroke="#F9F9F9" stroke-width="1.2855" stroke-miterlimit="10" stroke-linecap="round"/>
<path d="M406.15 300.377C391.787 302.087 363.047 306.763 358.57 317.143C353.515 328.861 345.209 386.377 342.695 404.361" stroke="#F9F9F9" stroke-width="1.2855" stroke-miterlimit="10" stroke-linecap="round" stroke-dasharray="4.62 4.62"/>
<path d="M342.316 407.093C342.081 408.798 341.952 409.746 341.952 409.746" stroke="#F9F9F9" stroke-width="1.2855" stroke-miterlimit="10" stroke-linecap="round"/>
</g>
<path d="M347.1 431.869H302.298C302.298 430.443 302.734 429.141 303.494 427.953C306.069 423.876 312.314 421.124 317.097 419.278C319.473 418.35 321.488 417.652 322.515 417.124C326.201 415.208 325.703 410.296 325.703 410.296C326.99 411.445 328.37 412.297 329.78 412.917C330.163 413.086 330.547 413.239 330.937 413.377C330.937 413.377 330.937 413.377 330.945 413.377C336.586 415.378 342.442 414.036 344.64 413.209C344.862 413.124 345.154 412.549 345.506 411.554L346.103 419.202L346.792 427.954L347.1 431.869Z" fill="#1C1C1C"/>
<path d="M284.725 410.656C284.725 410.656 283.452 413.99 281.735 418.021C280.371 421.216 278.731 424.849 277.221 427.593C275.842 430.106 274.578 431.87 273.749 431.87C270.883 431.87 240.565 414.526 237.561 406.196C238.665 405.223 239.837 404.579 241.064 404.172C245.271 402.777 250.206 404.141 255.709 404.555C256.958 404.647 258.237 404.693 259.548 404.647C268.292 404.325 267.602 400.095 267.602 400.095C267.725 400.692 269.533 402.064 271.932 403.62C272.883 404.233 273.925 404.884 274.998 405.521C279.36 408.143 284.143 410.656 284.725 410.656Z" fill="#1C1C1C"/>
<path opacity="0.25" d="M329.779 412.917C328.446 420.044 323.64 423.102 321.234 422.765C319.164 422.481 317.655 420.236 317.096 419.278C319.472 418.35 321.487 417.652 322.514 417.124C326.2 415.208 325.702 410.296 325.702 410.296C326.989 411.445 328.369 412.295 329.779 412.917Z" fill="black"/>
<path opacity="0.25" d="M271.933 403.62C268.246 409.467 260.223 410.341 258.184 409.744C256.552 409.261 255.931 406.28 255.709 404.555C256.959 404.647 258.238 404.693 259.548 404.647C268.293 404.325 267.602 400.095 267.602 400.095C267.725 400.693 269.534 402.064 271.933 403.62Z" fill="black"/>
<path opacity="0.25" d="M277.221 427.594C275.842 430.108 274.578 431.871 273.749 431.871C270.883 431.871 240.565 414.528 237.561 406.197C238.665 405.224 239.837 404.58 241.064 404.174C246.199 408.987 263.879 424.835 277.221 427.594Z" fill="black"/>
<path opacity="0.25" d="M284.725 410.656C284.725 410.656 283.452 413.989 281.736 418.021L274.999 405.521C279.36 408.142 284.143 410.656 284.725 410.656Z" fill="black"/>
<path opacity="0.25" d="M346.104 419.2C339.429 419.131 331.267 413.606 330.945 413.376C336.586 415.376 342.442 414.035 344.64 413.208C344.862 413.123 345.154 412.548 345.506 411.553L346.104 419.2Z" fill="black"/>
<path d="M250.466 235.47C250.466 235.47 251.832 230.277 257.431 228.501C263.032 226.725 271.567 230.686 274.026 231.505C276.484 232.324 274.641 235.471 274.641 235.471L250.466 235.47Z" fill="url(#paint4_linear_1095_2260)"/>
<path d="M262.325 235.472L265.558 229.823H322.603L320.418 235.471L262.325 235.472Z" fill="url(#paint5_linear_1095_2260)"/>
<path d="M322.602 229.823L357.395 231.931L358.57 235.471H320.417L322.602 229.823Z" fill="#3A1508"/>
<path d="M421.397 431.869H391.891C389.738 431.869 388.014 430.022 388.22 427.822C388.404 425.906 390.128 424.496 392.052 424.496H392.098C398.023 424.496 402.82 419.698 402.82 413.775V339.635H410.468V413.775C410.468 419.699 415.266 424.496 421.19 424.496H421.236C423.159 424.496 424.884 425.906 425.068 427.822C425.274 430.022 423.55 431.869 421.397 431.869Z" fill="#0D5375"/>
<path opacity="0.25" d="M421.399 431.869H397.634C395.481 431.869 393.757 430.022 393.963 427.822C394.147 425.906 395.871 424.496 397.795 424.496H397.842C403.766 424.496 408.563 419.698 408.563 413.775V339.635H410.471V413.775C410.471 419.699 415.268 424.496 421.192 424.496H421.238C423.161 424.496 424.887 425.906 425.07 427.822C425.277 430.022 423.552 431.869 421.399 431.869Z" fill="black"/>
<path d="M508.312 185.509L508.289 185.578L456.82 339.635H365.529C362.739 339.635 360.624 337.137 361.076 334.385L362.585 325.28C362.945 323.103 364.823 321.51 367.03 321.51H432.164C435.138 321.51 437.797 319.641 438.794 316.844L488.056 179.141C489.136 176.136 492.34 174.466 495.414 175.309L504.12 177.677C507.507 178.604 509.423 182.175 508.312 185.509Z" fill="#8BDEF2"/>
<path opacity="0.25" d="M508.288 185.579L456.819 339.635H370.464L371.322 334.432C371.682 332.255 373.567 330.653 375.774 330.653H440.909C443.882 330.653 446.534 328.791 447.538 325.986L496.8 188.283C497.874 185.286 501.077 183.616 504.158 184.451L508.288 185.579Z" fill="black"/>
<path d="M410.466 332.184C410.238 332.184 410.008 332.143 409.787 332.06C409.043 331.777 408.551 331.064 408.551 330.268V278.806C408.551 277.747 409.408 276.89 410.467 276.89H456.084C456.838 276.89 457.522 277.332 457.832 278.02C458.141 278.707 458.018 279.513 457.519 280.077L411.901 331.539C411.529 331.957 411.005 332.184 410.466 332.184ZM412.383 280.722V325.219L451.827 280.722H412.383Z" fill="#00B3F9"/>
<path d="M416.506 330.269C416.506 333.603 413.803 336.306 410.469 336.306C407.136 336.306 404.433 333.603 404.433 330.269C404.433 326.935 407.136 324.232 410.469 324.232C413.803 324.232 416.506 326.935 416.506 330.269Z" fill="#0D5375"/>
<path d="M466.65 282.633H388.319C386.207 282.633 384.495 280.921 384.495 278.809C384.495 276.698 386.207 274.984 388.319 274.984H466.65C468.762 274.984 470.475 276.697 470.475 278.809C470.475 280.921 468.762 282.633 466.65 282.633Z" fill="#0D5375"/>
<path d="M208.19 255.956H142.955C141.967 255.956 141.017 255.818 140.112 255.549C135.835 254.322 132.716 250.384 132.716 245.716C132.716 242.888 133.865 240.328 135.712 238.474C137.566 236.619 140.126 235.47 142.954 235.47H208.189C205.361 235.47 202.801 236.619 200.947 238.474C200.057 239.364 199.33 240.421 198.809 241.593C198.25 242.85 197.943 244.245 197.943 245.716C197.943 251.374 202.534 255.956 208.19 255.956Z" fill="#11191E"/>
<path d="M382.057 245.717C382.057 248.546 380.915 251.105 379.061 252.959C377.205 254.806 374.647 255.956 371.818 255.956H208.189C202.533 255.956 197.942 251.372 197.942 245.717C197.942 244.246 198.249 242.851 198.808 241.594C199.329 240.422 200.058 239.365 200.946 238.475C202.801 236.62 205.36 235.471 208.188 235.471H371.817C377.474 235.471 382.057 240.061 382.057 245.717Z" fill="#1C262D"/>
<path opacity="0.25" d="M356.383 251.841C356.383 253.306 356.023 254.692 355.372 255.957H142.956C141.968 255.957 141.018 255.819 140.113 255.551C139.576 254.401 139.285 253.152 139.285 251.841C139.285 249.013 140.634 246.462 142.826 244.599C145.011 242.744 148.03 241.595 151.363 241.595H344.314C350.981 241.595 356.383 246.185 356.383 251.841Z" fill="black"/>
<path d="M164.185 255.956L118.348 431.871H111.152L156.989 255.956H164.185Z" fill="#008EBA"/>
<path opacity="0.25" d="M164.184 255.956L118.347 431.871H114.409L160.246 255.956H164.184Z" fill="black"/>
<path d="M230.222 255.956L184.385 431.871H177.181L223.018 255.956H230.222Z" fill="#00B3F9"/>
<path opacity="0.25" d="M230.221 255.956L184.384 431.871H181.004L226.841 255.956H230.221Z" fill="black"/>
<path d="M402.819 431.871H395.615L349.778 255.956H356.982L402.819 431.871Z" fill="#00B3F9"/>
<path opacity="0.25" d="M402.819 431.871H399.439L353.602 255.956H356.982L402.819 431.871Z" fill="black"/>
<path d="M434.784 99.6581H332.075C328.53 99.6581 325.655 96.7846 325.655 93.2387C325.655 89.694 328.529 86.8193 332.075 86.8193H434.784C438.329 86.8193 441.204 89.6928 441.204 93.2387C441.204 96.7834 438.329 99.6581 434.784 99.6581Z" fill="#CAE7EF"/>
<path d="M349.184 123.969C347.354 123.969 345.869 122.486 345.869 120.655V99.6572H352.497V120.655C352.498 122.486 351.015 123.969 349.184 123.969Z" fill="#ADD0D8"/>
<path d="M417.891 123.969C416.061 123.969 414.576 122.486 414.576 120.655V99.6572H421.204V120.655C421.205 122.486 419.722 123.969 417.891 123.969Z" fill="#ADD0D8"/>
<path d="M359.197 51.3066H356.159C355.102 51.3066 354.246 52.1627 354.246 53.2191V84.9058C354.246 85.9622 355.102 86.8182 356.159 86.8182H359.197C360.253 86.8182 361.109 85.9622 361.109 84.9058V53.2191C361.108 52.1627 360.252 51.3066 359.197 51.3066Z" fill="#ADD0D8"/>
<path d="M406.553 51.3066H403.516C402.46 51.3066 401.604 52.1627 401.604 53.2191V84.9058C401.604 85.9622 402.46 86.8182 403.516 86.8182H406.553C407.609 86.8182 408.465 85.9622 408.465 84.9058V53.2191C408.465 52.1627 407.609 51.3066 406.553 51.3066Z" fill="#ADD0D8"/>
<path d="M370.982 51.3066H363.684C362.261 51.3066 361.108 52.4596 361.108 53.882V84.2416C361.108 85.6641 362.261 86.817 363.684 86.817H370.982C372.404 86.817 373.557 85.6641 373.557 84.2416V53.882C373.557 52.4596 372.404 51.3066 370.982 51.3066Z" fill="white"/>
<path d="M399.351 53.7853L392.534 51.1765C391.206 50.6686 389.717 51.3327 389.208 52.6609L378.354 81.0151C377.846 82.3433 378.51 83.8325 379.839 84.3416L386.655 86.9504C387.983 87.4595 389.472 86.7942 389.982 85.466L400.835 57.1118C401.344 55.7836 400.679 54.2944 399.351 53.7853Z" fill="#65B8D1"/>
<path d="M218.489 387.515L193.182 397.798L161.989 321.034C159.149 314.046 162.512 306.079 169.501 303.239C176.489 300.399 184.456 303.762 187.296 310.751L218.489 387.515Z" fill="#8BDEF2"/>
<path opacity="0.25" d="M169.498 303.239L202.496 381.608" stroke="black" stroke-width="1.2855" stroke-miterlimit="10" stroke-linecap="round"/>
<path d="M206.619 397.134L185.825 389.072C184.534 388.571 183.894 387.119 184.393 385.828L200.724 343.708C203.451 336.675 211.363 333.185 218.397 335.912C225.43 338.639 228.92 346.551 226.193 353.584L209.862 395.703C209.363 396.995 207.91 397.635 206.619 397.134Z" fill="#65B8D1"/>
<path opacity="0.25" d="M218.399 335.913L198.833 384.248" stroke="black" stroke-width="1.2855" stroke-miterlimit="10" stroke-linecap="round"/>
<path d="M229.272 388.024L226.942 401.03L222.635 425.041C222.023 428.972 218.635 431.869 214.658 431.869H183.007C179.029 431.869 175.642 428.972 175.029 425.041L168.393 388.024C167.626 383.119 171.42 378.698 176.379 378.698H221.288C226.245 378.697 230.038 383.119 229.272 388.024Z" fill="#65B8D1"/>
<path opacity="0.25" d="M226.943 401.029L222.636 425.039C222.023 428.97 218.636 431.867 214.659 431.867H191.813L187.958 410.355C187.191 405.45 190.985 401.027 195.944 401.027H226.943V401.029Z" fill="black"/>
<path d="M226.514 390.351H171.153C167.445 390.351 164.44 387.345 164.44 383.637V379.581C164.44 375.873 167.446 372.867 171.153 372.867H226.514C230.222 372.867 233.228 375.873 233.228 379.581V383.637C233.228 387.345 230.222 390.351 226.514 390.351Z" fill="#8BDEF2"/>
<path d="M548.672 367.839H521.328L521.214 364.866L519.159 311.51L518.73 300.306C518.439 292.773 524.317 286.426 531.85 286.135C532.027 286.127 532.21 286.127 532.387 286.127C539.69 286.127 545.744 291.898 546.028 299.255L546.502 311.51L546.786 319.005L547.399 334.861L548.142 354.159L548.672 367.839Z" fill="#8BDEF2"/>
<path opacity="0.25" d="M531.85 286.136L536.188 367.838" stroke="black" stroke-width="1.2855" stroke-miterlimit="10" stroke-linecap="round"/>
<path d="M571.381 343.813C571.381 346.994 570.277 350.189 568.016 352.779L554.881 367.839H518.624L521.215 364.865L535.064 349.002L547.403 334.862L547.434 334.824C552.392 329.138 561.021 328.548 566.7 333.514C569.794 336.209 571.381 340.003 571.381 343.813Z" fill="#65B8D1"/>
<path opacity="0.25" d="M566.702 333.512L536.189 367.841" stroke="black" stroke-width="1.2855" stroke-miterlimit="10" stroke-linecap="round"/>
<path d="M229.304 235.47H164.898C162.304 235.47 160.201 233.366 160.201 230.773V155.504C160.201 152.911 162.304 150.808 164.898 150.808H229.304C231.897 150.808 234 152.91 234 155.504V230.773C234 233.368 231.897 235.47 229.304 235.47Z" fill="#8BDEF2"/>
<path d="M174.153 232.406C173.254 232.406 172.521 231.675 172.521 230.775V155.506C172.521 154.607 173.254 153.875 174.153 153.875H229.303C230.202 153.875 230.934 154.606 230.934 155.506V230.775C230.934 231.674 230.202 232.406 229.303 232.406H174.153Z" fill="#0D5375"/>
<path opacity="0.25" d="M174.135 235.469H165.384L188.305 150.809H197.056L174.135 235.469Z" fill="white"/>
<path opacity="0.25" d="M197.415 235.469H179.686L202.608 150.809H220.337L197.415 235.469Z" fill="white"/>
<path d="M166.132 235.469H144.53C142.951 235.469 141.673 234.19 141.673 232.613V153.665C141.673 152.088 142.952 150.809 144.53 150.809H166.132C167.71 150.809 168.989 152.088 168.989 153.665V232.613C168.989 234.19 167.709 235.469 166.132 235.469Z" fill="#65B8D1"/>
<path opacity="0.25" d="M163.578 216.832H158.844C158.039 216.832 157.387 216.18 157.387 215.375C157.387 214.57 158.039 213.918 158.844 213.918H163.578C164.383 213.918 165.035 214.57 165.035 215.375C165.035 216.18 164.383 216.832 163.578 216.832Z" fill="black"/>
<path opacity="0.25" d="M150.819 216.832H146.084C145.279 216.832 144.627 216.18 144.627 215.375C144.627 214.57 145.279 213.918 146.084 213.918H150.819C151.623 213.918 152.276 214.57 152.276 215.375C152.276 216.18 151.623 216.832 150.819 216.832Z" fill="black"/>
<path d="M204.402 235.47C198.11 237.485 197.375 247.817 196.662 257.826C195.918 268.203 195.221 277.997 188.959 280.694C188.507 280.893 187.971 281.039 187.358 281.039C186.408 281.039 185.289 280.67 184.132 279.521C177.25 272.731 174.207 242.896 183.588 220.365C187.006 212.149 192.892 202.945 202.901 197.473C202.595 198.246 202.295 199.02 202.004 199.795C193.336 205.152 188.118 213.475 184.999 220.955C176.001 242.575 178.76 272.073 185.205 278.434C186.255 279.469 187.282 279.751 188.355 279.292C193.758 276.954 194.456 267.176 195.13 257.719C195.781 248.659 196.44 239.356 201.184 235.47H204.402Z" fill="#55C6FF"/>
<path d="M224.526 193.38C224.519 193.803 224.151 194.132 223.752 194.139H223.231C222.059 194.139 220.924 194.177 219.821 194.262C220.097 193.725 220.373 193.196 220.664 192.675C221.5 192.628 222.35 192.605 223.224 192.605H223.768C224.189 192.615 224.526 192.96 224.526 193.38Z" fill="#55C6FF"/>
<path d="M313.65 232.641C313.65 233.063 313.306 233.408 312.883 233.415C312.302 233.415 274.588 233.683 243.673 234.166C226.728 234.427 211.821 234.756 206.189 235.139C205.552 235.186 204.955 235.293 204.403 235.468H201.184C202.487 234.402 204.088 233.744 206.089 233.606C211.53 233.237 225.585 232.924 241.779 232.663C273.039 232.157 312.278 231.88 312.876 231.88C313.282 231.852 313.642 232.22 313.65 232.641Z" fill="#55C6FF"/>
<path d="M204.156 194.377C203.895 194.998 203.642 195.618 203.389 196.239C194.2 199.412 181.547 207.007 179.195 225.001C177.371 238.873 178.589 250.284 179.57 259.458C180.69 269.926 181.433 276.846 176.597 279.996C174.122 281.613 169.937 283.82 165.576 283.82C163.982 283.82 162.357 283.521 160.787 282.793C155.53 280.356 152.181 273.72 150.839 263.06C148.38 243.563 150.579 225.538 156.311 218.196C157.943 216.103 159.821 214.923 161.883 214.67C162.305 214.625 162.687 214.923 162.734 215.345C162.787 215.767 162.488 216.142 162.067 216.195C160.428 216.394 158.895 217.382 157.522 219.138C152.027 226.18 149.95 243.754 152.357 262.866C153.629 272.968 156.679 279.206 161.431 281.406C166.62 283.805 172.635 280.746 175.762 278.716C179.809 276.071 179.111 269.527 178.045 259.617C177.057 250.368 175.831 238.856 177.67 224.801C180.245 205.167 194.53 197.404 204.156 194.377Z" fill="#003C54"/>
<path d="M155.331 171.183C151.358 171.183 148.139 167.962 148.139 163.991C148.139 160.019 151.359 156.799 155.331 156.799C159.302 156.799 162.523 160.019 162.523 163.991C162.523 167.962 159.302 171.183 155.331 171.183Z" fill="#0D5375"/>
<path d="M157.698 175.279H152.964C152.159 175.279 151.507 174.627 151.507 173.822C151.507 173.017 152.159 172.365 152.964 172.365H157.698C158.503 172.365 159.155 173.017 159.155 173.822C159.155 174.627 158.503 175.279 157.698 175.279Z" fill="#0D5375"/>
<path d="M157.698 179.376H152.964C152.159 179.376 151.507 178.724 151.507 177.919C151.507 177.114 152.159 176.462 152.964 176.462H157.698C158.503 176.462 159.155 177.114 159.155 177.919C159.155 178.724 158.503 179.376 157.698 179.376Z" fill="#0D5375"/>
<path opacity="0.25" d="M164.46 184.236H146.203C145.398 184.236 144.746 183.584 144.746 182.779C144.746 181.974 145.398 181.322 146.203 181.322H164.46C165.264 181.322 165.917 181.974 165.917 182.779C165.917 183.584 165.264 184.236 164.46 184.236Z" fill="black"/>
<path opacity="0.25" d="M164.46 191.134H146.203C145.398 191.134 144.746 190.482 144.746 189.677C144.746 188.872 145.398 188.22 146.203 188.22H164.46C165.264 188.22 165.917 188.872 165.917 189.677C165.917 190.482 165.264 191.134 164.46 191.134Z" fill="black"/>
<path opacity="0.25" d="M164.46 198.031H146.203C145.398 198.031 144.746 197.379 144.746 196.574C144.746 195.769 145.398 195.117 146.203 195.117H164.46C165.264 195.117 165.917 195.769 165.917 196.574C165.917 197.379 165.264 198.031 164.46 198.031Z" fill="black"/>
<path opacity="0.25" d="M164.46 204.929H146.203C145.398 204.929 144.746 204.276 144.746 203.472C144.746 202.667 145.398 202.015 146.203 202.015H164.46C165.264 202.015 165.917 202.667 165.917 203.472C165.917 204.276 165.264 204.929 164.46 204.929Z" fill="black"/>
<path d="M148.262 209.584C148.262 210.375 147.621 211.018 146.828 211.018C146.036 211.018 145.394 210.375 145.394 209.584C145.394 208.792 146.035 208.149 146.828 208.149C147.62 208.149 148.262 208.792 148.262 209.584Z" fill="#0D5375"/>
<path d="M153.522 209.584C153.522 210.375 152.879 211.018 152.088 211.018C151.296 211.018 150.653 210.375 150.653 209.584C150.653 208.792 151.296 208.149 152.088 208.149C152.879 208.149 153.522 208.792 153.522 209.584Z" fill="#0D5375"/>
<path d="M158.778 209.584C158.778 210.375 158.136 211.018 157.344 211.018C156.552 211.018 155.909 210.375 155.909 209.584C155.909 208.792 156.552 208.149 157.344 208.149C158.136 208.149 158.778 208.792 158.778 209.584Z" fill="#0D5375"/>
<path d="M164.036 209.584C164.036 210.375 163.394 211.018 162.601 211.018C161.81 211.018 161.167 210.375 161.167 209.584C161.167 208.792 161.808 208.149 162.601 208.149C163.394 208.149 164.036 208.792 164.036 209.584Z" fill="#0D5375"/>
<path d="M290.958 202.139H216.659C215.074 202.139 213.79 200.855 213.79 199.27V118.416C213.79 116.831 215.074 115.547 216.659 115.547H290.958C292.543 115.547 293.827 116.831 293.827 118.416V199.272C293.826 200.855 292.542 202.139 290.958 202.139Z" fill="#16374C"/>
<path d="M290.003 118.413V199.274C290.003 200.853 288.715 202.14 287.137 202.14H212.837C211.25 202.14 209.971 200.853 209.971 199.274V118.413C209.971 116.835 211.25 115.547 212.837 115.547H287.137C288.715 115.547 290.003 116.833 290.003 118.413Z" fill="#0C1C28"/>
<path opacity="0.25" d="M276.316 133.297V202.14H212.836C211.249 202.14 209.97 200.853 209.97 199.274V130.438H273.449C275.028 130.439 276.316 131.718 276.316 133.297Z" fill="black"/>
<path opacity="0.25" d="M239.605 168.189C239.605 175.791 237.259 182.252 234.002 184.605C233.144 185.226 232.231 185.562 231.274 185.562C230.369 185.562 229.496 185.256 228.676 184.696C225.342 182.42 222.943 175.891 222.943 168.189C222.943 158.586 226.668 150.808 231.274 150.808C235.873 150.808 239.605 158.586 239.605 168.189Z" fill="black"/>
<path d="M237.03 169.067C237.03 173.538 235.65 177.338 233.735 178.723C233.231 179.087 232.695 179.287 232.131 179.287C231.599 179.287 231.085 179.107 230.603 178.777C228.642 177.439 227.231 173.598 227.231 169.069C227.231 163.421 229.422 158.846 232.131 158.846C234.835 158.845 237.03 163.419 237.03 169.067Z" fill="#00B3F9"/>
<path d="M235.628 169.067C235.628 173.538 234.248 177.338 232.333 178.723C231.829 179.087 231.292 179.287 230.728 179.287C230.197 179.287 229.683 179.107 229.2 178.777C227.239 177.439 225.828 173.598 225.828 169.069C225.828 163.421 228.018 158.846 230.727 158.846C233.433 158.845 235.628 163.419 235.628 169.067Z" fill="#008EBA"/>
<path d="M244.295 235.468H192.028C192.028 235.468 192.971 230.279 194.895 222.693C195.308 221.052 195.776 219.305 196.281 217.474C197.784 212.07 199.684 205.94 202.007 199.793C202.298 199.019 202.597 198.246 202.903 197.471V197.463C203.064 197.057 203.225 196.643 203.393 196.237C203.646 195.615 203.899 194.995 204.16 194.374C208.551 183.982 214.161 174.18 221.059 168.548C222.047 167.736 223.059 167.014 224.101 166.386C225.895 165.306 227.772 164.517 229.727 164.065C234.341 162.992 233.183 173.545 231.819 175.644C231.144 176.679 225.557 183.707 220.669 192.673C220.378 193.194 220.101 193.723 219.826 194.26C215.227 203.058 211.571 213.427 213.794 221.803C213.863 222.071 214.154 222.355 214.621 222.654C218.576 225.192 235.359 228.747 241.782 232.664C242.602 233.162 243.246 233.661 243.675 234.166C244.05 234.603 244.264 235.032 244.295 235.468Z" fill="#00B3F9"/>
<path opacity="0.25" d="M231.819 175.646C230.455 177.739 209.119 204.171 213.794 221.805C213.863 222.073 214.154 222.357 214.621 222.656C211.48 221.545 208.522 219.553 208.965 215.982C209.325 192.492 228.27 174.644 226.814 170.152C226.17 168.175 225.097 167.04 224.102 166.389C225.895 165.309 227.773 164.52 229.727 164.068C234.341 162.994 233.183 173.545 231.819 175.646Z" fill="black"/>
<path opacity="0.25" d="M228.086 235.47H192.028C192.028 235.47 192.971 230.281 194.895 222.694C197.11 229.155 202.995 231.953 211.693 232.65C222.078 233.47 228.086 235.47 228.086 235.47Z" fill="black"/>
<path opacity="0.25" d="M215.888 181.408C204.959 192.666 202.591 214.883 200.224 217.029C198.614 218.485 197.089 217.964 196.284 217.474C200.783 201.242 208.93 178.443 221.061 168.548C222.18 171.461 221.237 175.898 215.888 181.408Z" fill="white"/>
<path d="M224.274 195.174H223.657C222.773 195.174 222.057 194.458 222.057 193.574V192.957C222.057 192.073 222.773 191.356 223.657 191.356H224.274C225.158 191.356 225.874 192.073 225.874 192.957V193.574C225.874 194.458 225.158 195.174 224.274 195.174Z" fill="#00B3F9"/>
<path d="M243.837 195.174H243.007C242.182 195.174 241.513 194.505 241.513 193.68V192.85C241.513 192.025 242.182 191.356 243.007 191.356H243.837C244.662 191.356 245.33 192.025 245.33 192.85V193.68C245.33 194.505 244.662 195.174 243.837 195.174Z" fill="#00B3F9"/>
<path d="M249.709 195.174H248.879C248.054 195.174 247.385 194.505 247.385 193.68V192.85C247.385 192.025 248.054 191.356 248.879 191.356H249.709C250.534 191.356 251.203 192.025 251.203 192.85V193.68C251.203 194.505 250.534 195.174 249.709 195.174Z" fill="#00B3F9"/>
<path d="M255.581 195.174H254.75C253.925 195.174 253.256 194.505 253.256 193.68V192.85C253.256 192.025 253.925 191.356 254.75 191.356H255.581C256.406 191.356 257.075 192.025 257.075 192.85V193.68C257.075 194.505 256.406 195.174 255.581 195.174Z" fill="#00B3F9"/>
<path d="M241.245 137.811H223.763V143.547H241.245V137.811Z" fill="#00B3F9"/>
<defs>
<linearGradient id="paint0_linear_1095_2260" x1="298.416" y1="0" x2="298.416" y2="431.869" gradientUnits="userSpaceOnUse">
<stop stop-color="#0040C1"/>
<stop offset="1"/>
</linearGradient>
<linearGradient id="paint1_linear_1095_2260" x1="255.595" y1="219.076" x2="356.213" y2="228.372" gradientUnits="userSpaceOnUse">
<stop stop-color="#FFA894"/>
<stop offset="1" stop-color="#FC7B65"/>
</linearGradient>
<linearGradient id="paint2_linear_1095_2260" x1="322.255" y1="233.688" x2="422.779" y2="242.976" gradientUnits="userSpaceOnUse">
<stop stop-color="#FFA894"/>
<stop offset="1" stop-color="#FC7B65"/>
</linearGradient>
<linearGradient id="paint3_linear_1095_2260" x1="386.321" y1="189.122" x2="397.976" y2="153.611" gradientUnits="userSpaceOnUse">
<stop stop-color="#FFA894"/>
<stop offset="1" stop-color="#FC7B65"/>
</linearGradient>
<linearGradient id="paint4_linear_1095_2260" x1="264.068" y1="205.202" x2="262.43" y2="245.63" gradientUnits="userSpaceOnUse">
<stop stop-color="#FFB000"/>
<stop offset="1" stop-color="#FF6700"/>
</linearGradient>
<linearGradient id="paint5_linear_1095_2260" x1="293.097" y1="222.324" x2="289.922" y2="274.12" gradientUnits="userSpaceOnUse">
<stop stop-color="#4C1710"/>
<stop offset="1" stop-color="#723328"/>
</linearGradient>
</defs>
</svg>
