<svg width="1441" height="713" viewBox="0 0 1441 713" fill="none" xmlns="http://www.w3.org/2000/svg">
<path d="M1676 88.0004L1636.41 161.274C1596.98 235.266 1517.36 380.735 1438.78 469.274C1359.75 556.735 1280.14 587.265 1201.56 601.274C1122.53 616 1042.91 616 964.333 586.727C885.309 556.735 805.691 499.265 727.111 454.727C648.087 411.266 568.469 380.735 489.889 396C410.864 411.266 331.247 468.735 252.667 469.274C173.642 468.735 94.0246 411.266 15.4448 410.727C-63.5799 411.266 -143.198 468.735 -221.777 542.727C-300.802 616 -380.42 704 -459 718.727C-538.024 732.735 -617.642 675.265 -696.222 689.274C-775.246 704 -854.864 792 -933.444 748C-1012.47 704 -1092.09 528 -1170.67 454.727C-1249.69 380.735 -1329.31 411.266 -1407.89 469.274C-1486.91 528 -1566.53 616 -1645.11 674.727C-1724.14 732.735 -1803.75 763.265 -1882.33 689.274C-1961.36 616 -2040.97 440 -2119.55 366.727C-2198.58 292.735 -2278.2 323.266 -2356.78 410.727C-2435.8 499.266 -2515.42 644.735 -2594 733.274C-2673.02 820.735 -2752.64 851.265 -2831.22 821.274C-2910.25 792 -2989.86 704 -3068.44 630.727C-3147.47 556.735 -3227.09 499.265 -3305.67 498.727C-3384.69 499.265 -3464.31 556.735 -3542.89 528C-3621.91 499.266 -3701.53 380.735 -3780.11 337.274C-3859.13 292.735 -3938.75 323.266 -3977.3 337.274L-4017.33 352V0.000461727H-3977.75C-3938.31 0.000461727 -3858.69 0.000461727 -3780.11 0.000461727C-3701.09 0.000461727 -3621.47 0.000461727 -3542.89 0.000461727C-3463.86 0.000461727 -3384.25 0.000461727 -3305.67 0.000461727C-3226.64 0.000461727 -3147.02 0.000461727 -3068.44 0.000461727C-2989.42 0.000461727 -2909.8 0.000461727 -2831.22 0.000461727C-2752.2 0.000461727 -2672.58 0.000461727 -2594 0.000461727C-2514.97 0.000461727 -2435.36 0.000461727 -2356.78 0.000461727C-2277.75 0.000461727 -2198.13 0.000461727 -2119.55 0.000461727C-2040.53 0.000461727 -1960.91 0.000461727 -1882.33 0.000461727C-1803.31 0.000461727 -1723.69 0.000461727 -1645.11 0.000461727C-1566.09 0.000461727 -1486.47 0.000461727 -1407.89 0.000461727C-1328.86 0.000461727 -1249.25 0.000461727 -1170.67 0.000461727C-1091.64 0.000461727 -1012.02 0.000461727 -933.444 0.000461727C-854.419 0.000461727 -774.802 0.000461727 -696.222 0.000461727C-617.197 0.000461727 -537.579 0.000461727 -459 0.000461727C-379.975 0.000461727 -300.357 0.000461727 -221.777 0.000461727C-142.753 0.000461727 -63.1351 0.000461727 15.4448 0.000461727C94.4694 0.000461727 174.087 0.000461727 252.667 0.000461727C331.692 0.000461727 411.309 0.000461727 489.889 0.000461727C568.914 0.000461727 648.531 0.000461727 727.111 0.000461727C806.136 0.000461727 885.754 0.000461727 964.333 0.000461727C1043.36 0.000461727 1122.98 0.000461727 1201.56 0.000461727C1280.58 0.000461727 1360.2 0.000461727 1438.78 0.000461727C1517.8 0.000461727 1597.42 0.000461727 1635.97 0.000461727H1676V88.0004Z" fill="url(#paint0_linear_1094_1597)"/>
<defs>
<linearGradient id="paint0_linear_1094_1597" x1="1676" y1="0.000488281" x2="1676" y2="832.476" gradientUnits="userSpaceOnUse">
<stop stop-color="#6DC2FF"/>
<stop offset="0.770833" stop-color="#2268FF"/>
<stop offset="1" stop-color="#4555FF"/>
</linearGradient>
</defs>
</svg>
