<svg width="1440" height="919" viewBox="0 0 1440 919" fill="none" xmlns="http://www.w3.org/2000/svg">
<mask id="mask0_1110_405" style="mask-type:alpha" maskUnits="userSpaceOnUse" x="0" y="0" width="1440" height="919">
<path d="M0 0H1440V919H0V0Z" fill="white"/>
</mask>
<g mask="url(#mask0_1110_405)">
<path d="M1653.33 90.2001L1613.75 165.305C1574.31 241.147 1494.69 390.253 1416.11 481.005C1337.09 570.653 1257.47 601.947 1178.89 616.305C1099.86 631.4 1020.25 631.4 941.666 601.395C862.641 570.653 783.023 511.747 704.443 466.095C625.419 421.547 545.801 390.253 467.221 405.9C388.197 421.547 308.579 480.453 229.999 481.005C150.974 480.453 71.3566 421.547 -7.2232 420.995C-86.2478 421.547 -165.866 480.453 -244.445 556.295C-323.47 631.4 -403.088 721.6 -481.668 736.694C-560.692 751.053 -640.31 692.147 -718.89 706.505C-797.914 721.6 -877.532 811.8 -956.112 766.7C-1035.14 721.6 -1114.75 541.2 -1193.33 466.095C-1272.36 390.253 -1351.98 421.547 -1430.56 481.005C-1509.58 541.2 -1589.2 631.4 -1667.78 691.594C-1746.8 751.053 -1826.42 782.347 -1905 706.505C-1984.03 631.4 -2063.64 451 -2142.22 375.895C-2221.25 300.053 -2300.87 331.347 -2379.44 420.995C-2458.47 511.747 -2538.09 660.853 -2616.67 751.605C-2695.69 841.253 -2775.31 872.547 -2853.89 841.805C-2932.91 811.8 -3012.53 721.6 -3091.11 646.494C-3170.14 570.653 -3249.75 511.747 -3328.33 511.195C-3407.36 511.747 -3486.98 570.653 -3565.56 541.2C-3644.58 511.747 -3724.2 390.253 -3802.78 345.705C-3881.8 300.053 -3961.42 331.347 -3999.97 345.705L-4040 360.8V0.000173369H-4000.41C-3960.98 0.000173369 -3881.36 0.000173369 -3802.78 0.000173369C-3723.75 0.000173369 -3644.14 0.000173369 -3565.56 0.000173369C-3486.53 0.000173369 -3406.91 0.000173369 -3328.33 0.000173369C-3249.31 0.000173369 -3169.69 0.000173369 -3091.11 0.000173369C-3012.09 0.000173369 -2932.47 0.000173369 -2853.89 0.000173369C-2774.86 0.000173369 -2695.25 0.000173369 -2616.67 0.000173369C-2537.64 0.000173369 -2458.02 0.000173369 -2379.44 0.000173369C-2300.42 0.000173369 -2220.8 0.000173369 -2142.22 0.000173369C-2063.2 0.000173369 -1983.58 0.000173369 -1905 0.000173369C-1825.98 0.000173369 -1746.36 0.000173369 -1667.78 0.000173369C-1588.75 0.000173369 -1509.14 0.000173369 -1430.56 0.000173369C-1351.53 0.000173369 -1271.91 0.000173369 -1193.33 0.000173369C-1114.31 0.000173369 -1034.69 0.000173369 -956.112 0.000173369C-877.087 0.000173369 -797.47 0.000173369 -718.89 0.000173369C-639.865 0.000173369 -560.247 0.000173369 -481.668 0.000173369C-402.643 0.000173369 -323.025 0.000173369 -244.445 0.000173369C-165.421 0.000173369 -85.803 0.000173369 -7.2232 0.000173369C71.8014 0.000173369 151.419 0.000173369 229.999 0.000173369C309.024 0.000173369 388.641 0.000173369 467.221 0.000173369C546.246 0.000173369 625.863 0.000173369 704.443 0.000173369C783.468 0.000173369 863.086 0.000173369 941.666 0.000173369C1020.69 0.000173369 1100.31 0.000173369 1178.89 0.000173369C1257.91 0.000173369 1337.53 0.000173369 1416.11 0.000173369C1495.13 0.000173369 1574.75 0.000173369 1613.3 0.000173369H1653.33V90.2001Z" fill="url(#paint0_linear_1110_405)"/>
</g>
<defs>
<linearGradient id="paint0_linear_1110_405" x1="1653.33" y1="0.000183105" x2="1653.33" y2="853.287" gradientUnits="userSpaceOnUse">
<stop stop-color="#6DC2FF"/>
<stop offset="0.770833" stop-color="#2268FF"/>
<stop offset="1" stop-color="#4555FF"/>
</linearGradient>
</defs>
</svg>
