<?xml version="1.0" standalone="no"?>
<svg xmlns:xlink="http://www.w3.org/1999/xlink" id="wave" style="transform:rotate(180deg); transition: 0.3s" viewBox="0 0 1440 490" version="1.1" xmlns="http://www.w3.org/2000/svg"><defs><linearGradient id="sw-gradient-0" x1="0" x2="0" y1="1" y2="0"><stop stop-color="rgba(77, 180, 255, 1)" offset="0%"/><stop stop-color="rgba(64, 80, 255, 1)" offset="100%"/></linearGradient></defs><path style="transform:translate(0, 0px); opacity:1" fill="url(#sw-gradient-0)" d="M0,441L26.7,400.2C53.3,359,107,278,160,228.7C213.3,180,267,163,320,155.2C373.3,147,427,147,480,163.3C533.3,180,587,212,640,236.8C693.3,261,747,278,800,269.5C853.3,261,907,229,960,228.7C1013.3,229,1067,261,1120,261.3C1173.3,261,1227,229,1280,187.8C1333.3,147,1387,98,1440,89.8C1493.3,82,1547,114,1600,106.2C1653.3,98,1707,49,1760,73.5C1813.3,98,1867,196,1920,236.8C1973.3,278,2027,261,2080,228.7C2133.3,196,2187,147,2240,114.3C2293.3,82,2347,65,2400,106.2C2453.3,147,2507,245,2560,285.8C2613.3,327,2667,310,2720,261.3C2773.3,212,2827,131,2880,81.7C2933.3,33,2987,16,3040,32.7C3093.3,49,3147,98,3200,138.8C3253.3,180,3307,212,3360,212.3C3413.3,212,3467,180,3520,196C3573.3,212,3627,278,3680,302.2C3733.3,327,3787,310,3813,302.2L3840,294L3840,490L3813.3,490C3786.7,490,3733,490,3680,490C3626.7,490,3573,490,3520,490C3466.7,490,3413,490,3360,490C3306.7,490,3253,490,3200,490C3146.7,490,3093,490,3040,490C2986.7,490,2933,490,2880,490C2826.7,490,2773,490,2720,490C2666.7,490,2613,490,2560,490C2506.7,490,2453,490,2400,490C2346.7,490,2293,490,2240,490C2186.7,490,2133,490,2080,490C2026.7,490,1973,490,1920,490C1866.7,490,1813,490,1760,490C1706.7,490,1653,490,1600,490C1546.7,490,1493,490,1440,490C1386.7,490,1333,490,1280,490C1226.7,490,1173,490,1120,490C1066.7,490,1013,490,960,490C906.7,490,853,490,800,490C746.7,490,693,490,640,490C586.7,490,533,490,480,490C426.7,490,373,490,320,490C266.7,490,213,490,160,490C106.7,490,53,490,27,490L0,490Z"/></svg>